<svg preserveAspectRatio="none" width="100%" height="100%" overflow="visible" style="display: block;" viewBox="0 0 44 44" fill="none" xmlns="http://www.w3.org/2000/svg">
<g id="Frame 2147230024">
<rect x="0.5" y="0.5" width="43" height="43" rx="21.5" fill="var(--fill-0, #ECF4FE)"/>
<rect x="0.5" y="0.5" width="43" height="43" rx="21.5" stroke="var(--stroke-0, #D6E8FF)"/>
<path id="Vector" d="M22 31C17.0294 31 13 26.9705 13 22C13 17.0294 17.0294 13 22 13C26.9705 13 31 17.0294 31 22C31 26.9705 26.9705 31 22 31ZM22 29.2C25.9765 29.2 29.2 25.9765 29.2 22C29.2 18.0235 25.9765 14.8 22 14.8C18.0235 14.8 14.8 18.0235 14.8 22C14.8 25.9765 18.0235 29.2 22 29.2ZM22.9 22H26.5V23.8H21.1V17.5H22.9V22Z" fill="var(--fill-0, #3990F0)"/>
</g>
</svg>
