<svg preserveAspectRatio="none" width="100%" height="100%" overflow="visible" style="display: block;" viewBox="0 0 44 44" fill="none" xmlns="http://www.w3.org/2000/svg">
<g id="Frame 2147230022">
<rect x="0.5" y="0.5" width="43" height="43" rx="21.5" fill="var(--fill-0, #ECF4FE)"/>
<rect x="0.5" y="0.5" width="43" height="43" rx="21.5" stroke="var(--stroke-0, #D6E8FF)"/>
<path id="Vector" d="M19.5 12.6667V14.3333H24.5V12.6667H26.1667V14.3333H29.5C29.9602 14.3333 30.3333 14.7064 30.3333 15.1667V28.5C30.3333 28.9602 29.9602 29.3333 29.5 29.3333H14.5C14.0398 29.3333 13.6667 28.9602 13.6667 28.5V15.1667C13.6667 14.7064 14.0398 14.3333 14.5 14.3333H17.8333V12.6667H19.5ZM28.6667 21H15.3333V27.6667H28.6667V21ZM17.8333 16H15.3333V19.3333H28.6667V16H26.1667V17.6667H24.5V16H19.5V17.6667H17.8333V16Z" fill="var(--fill-0, #3990F0)"/>
</g>
</svg>
