<svg preserveAspectRatio="none" width="100%" height="100%" overflow="visible" style="display: block;" viewBox="0 0 27.0012 23.0003" fill="none" xmlns="http://www.w3.org/2000/svg">
<g id="Group">
<path id="Vector" d="M27.0004 1.78377C26.9323 1.89046 26.8267 1.94992 26.7154 2.00448C24.077 3.29294 21.7204 4.97315 19.564 6.93352C17.0744 9.19606 15.0228 11.7884 13.4746 14.7547C13.0866 15.4983 12.7367 16.2589 12.4334 17.04C12.3611 17.2257 12.2789 17.3918 12.0412 17.3984C11.7953 17.4057 11.7213 17.2233 11.644 17.0465C10.9709 15.4966 10.1591 14.0225 9.11204 12.6811C8.46222 11.8487 7.72847 11.0994 6.81356 10.5407C6.32578 10.2426 5.94935 9.87693 6.01666 9.2547C6.08812 8.58848 6.42384 8.09655 7.04291 7.79439C7.86308 7.39368 8.64835 7.44744 9.41202 7.94018C10.302 8.51355 10.9684 9.29786 11.5858 10.1294C11.7205 10.3102 11.8434 10.4992 11.9706 10.6849C12.1351 10.9251 12.1368 10.9276 12.3013 10.6963C12.7625 10.0455 13.2528 9.41596 13.7672 8.80512C15.5695 6.66313 17.6237 4.80293 20.085 3.40045C21.9107 2.3604 23.8635 1.66405 25.9584 1.36922C26.1578 1.34071 26.3597 1.32686 26.56 1.30487C26.7387 1.28451 26.8907 1.32605 27.0012 1.47509C27.0004 1.5769 27.0004 1.68033 27.0004 1.78377Z" fill="var(--fill-0, #3990F0)"/>
<path id="Vector_2" d="M0.000191077 11.5302C-0.0322169 5.98462 4.06116 1.09549 9.74086 0.175166C13.3697 -0.412865 16.6147 0.481398 19.4234 2.83108C19.6569 3.02655 19.6544 3.03632 19.3993 3.18781C18.8359 3.52255 18.2866 3.87927 17.7656 4.2751C17.6002 4.40052 17.4864 4.41274 17.3102 4.28161C15.8543 3.19432 14.2132 2.5957 12.3842 2.45562C7.68919 2.09563 3.40552 5.36564 2.60945 9.92248C1.78678 14.6324 4.73259 19.0883 9.44753 20.2863C14.2157 21.4982 19.1633 18.7413 20.5568 14.1038C21.2299 11.8641 21.0936 9.68547 20.074 7.57035C19.9851 7.38628 20.01 7.27796 20.1613 7.15254C20.6648 6.73717 21.1659 6.31773 21.6579 5.88933C21.8299 5.73947 21.9088 5.78345 22.0085 5.96263C22.778 7.34964 23.2384 8.82623 23.3855 10.3989C23.5949 12.6517 23.191 14.7921 22.1132 16.7907C20.6632 19.4792 18.486 21.4078 15.5294 22.3395C10.7995 23.83 6.62638 22.7891 3.15457 19.3179C1.30897 17.4724 0.310975 15.1879 0.0475566 12.6045C0.00766984 12.2257 0.00933179 11.8486 0.000191077 11.5302Z" fill="var(--fill-0, #3990F0)"/>
</g>
</svg>
