<svg preserveAspectRatio="none" width="100%" height="100%" overflow="visible" style="display: block;" viewBox="0 0 359 419" fill="none" xmlns="http://www.w3.org/2000/svg">
<path id="Vector" opacity="0.2" d="M12.4333 60.2143H48.2333M12.4333 60.2143C6.80791 60.2143 3.99519 60.2143 2.2476 58.4653C0.5 56.7163 0.5 53.9013 0.5 48.2714V12.4429C0.5 6.81294 0.5 3.99798 2.2476 2.24899C3.99519 0.5 6.80791 0.5 12.4333 0.5H48.2333C53.8588 0.5 56.6715 0.5 58.4191 2.24899C60.1667 3.99798 60.1667 6.81294 60.1667 12.4429M12.4333 60.2143C6.80791 60.2143 3.99519 60.2143 2.2476 61.9633C0.5 63.7123 0.5 66.5272 0.5 72.1571V107.986C0.5 113.616 0.5 116.431 2.2476 118.18C3.99519 119.929 6.80791 119.929 12.4333 119.929M60.1667 48.2714V12.4429M60.1667 48.2714C60.1667 53.9013 60.1667 56.7163 58.4191 58.4653C56.6715 60.2143 53.8588 60.2143 48.2333 60.2143M60.1667 48.2714C60.1667 53.9013 60.1667 56.7163 61.9143 58.4653C63.6619 60.2143 66.4746 60.2143 72.1 60.2143M48.2333 60.2143C53.8588 60.2143 56.6715 60.2143 58.4191 61.9633C60.1667 63.7123 60.1667 66.5272 60.1667 72.1571M60.1667 12.4429C60.1667 6.81294 60.1667 3.99798 61.9143 2.24899C63.6619 0.5 66.4746 0.5 72.1 0.5H107.9C113.525 0.5 116.338 0.5 118.086 2.24899C119.833 3.99798 119.833 6.81294 119.833 12.4429M72.1 60.2143H107.9M72.1 60.2143C66.4746 60.2143 63.6619 60.2143 61.9143 61.9633C60.1667 63.7123 60.1667 66.5272 60.1667 72.1571M119.833 48.2714V12.4429M119.833 48.2714C119.833 53.9013 119.833 56.7163 118.086 58.4653C116.338 60.2143 113.525 60.2143 107.9 60.2143M119.833 48.2714C119.833 53.9013 119.833 56.7163 121.581 58.4653C123.329 60.2143 126.141 60.2143 131.767 60.2143M107.9 60.2143C113.525 60.2143 116.338 60.2143 118.086 61.9633C119.833 63.7123 119.833 66.5272 119.833 72.1571M119.833 12.4429C119.833 6.81294 119.833 3.99798 121.581 2.24899C123.329 0.5 126.141 0.5 131.767 0.5H167.567C173.192 0.5 176.005 0.5 177.752 2.24899C179.5 3.99798 179.5 6.81294 179.5 12.4429M131.767 60.2143H167.567M131.767 60.2143C126.141 60.2143 123.329 60.2143 121.581 61.9633C119.833 63.7123 119.833 66.5272 119.833 72.1571M179.5 48.2714V12.4429M179.5 48.2714C179.5 53.9013 179.5 56.7163 177.752 58.4653C176.005 60.2143 173.192 60.2143 167.567 60.2143M179.5 48.2714C179.5 53.9013 179.5 56.7163 181.248 58.4653C182.995 60.2143 185.808 60.2143 191.433 60.2143M167.567 60.2143C173.192 60.2143 176.005 60.2143 177.752 61.9633C179.5 63.7123 179.5 66.5272 179.5 72.1571M179.5 12.4429C179.5 6.81294 179.5 3.99798 181.248 2.24899C182.995 0.5 185.808 0.5 191.433 0.5H227.233C232.859 0.5 235.671 0.5 237.419 2.24899C239.167 3.99798 239.167 6.81294 239.167 12.4429M191.433 60.2143H227.233M191.433 60.2143C185.808 60.2143 182.995 60.2143 181.248 61.9633C179.5 63.7123 179.5 66.5272 179.5 72.1571M239.167 48.2714V12.4429M239.167 48.2714C239.167 53.9013 239.167 56.7163 237.419 58.4653C235.671 60.2143 232.859 60.2143 227.233 60.2143M239.167 48.2714C239.167 53.9013 239.167 56.7163 240.914 58.4653C242.662 60.2143 245.475 60.2143 251.1 60.2143M227.233 60.2143C232.859 60.2143 235.671 60.2143 237.419 61.9633C239.167 63.7123 239.167 66.5272 239.167 72.1571M239.167 12.4429C239.167 6.81294 239.167 3.99798 240.914 2.24899C242.662 0.5 245.475 0.5 251.1 0.5H286.9C292.525 0.5 295.338 0.5 297.086 2.24899C298.833 3.99798 298.833 6.81294 298.833 12.4429M251.1 60.2143H286.9M251.1 60.2143C245.475 60.2143 242.662 60.2143 240.914 61.9633C239.167 63.7123 239.167 66.5272 239.167 72.1571M298.833 48.2714V12.4429M298.833 48.2714C298.833 53.9013 298.833 56.7163 297.086 58.4653C295.338 60.2143 292.525 60.2143 286.9 60.2143M298.833 48.2714C298.833 53.9013 298.833 56.7163 300.581 58.4653C302.329 60.2143 305.141 60.2143 310.767 60.2143M286.9 60.2143C292.525 60.2143 295.338 60.2143 297.086 61.9633C298.833 63.7123 298.833 66.5272 298.833 72.1571M298.833 12.4429C298.833 6.81294 298.833 3.99798 300.581 2.24899C302.329 0.5 305.141 0.5 310.767 0.5H346.567C352.192 0.5 355.005 0.5 356.752 2.24899C358.5 3.99798 358.5 6.81294 358.5 12.4429V48.2714C358.5 53.9013 358.5 56.7163 356.752 58.4653C355.005 60.2143 352.192 60.2143 346.567 60.2143M310.767 60.2143H346.567M310.767 60.2143C305.141 60.2143 302.329 60.2143 300.581 61.9633C298.833 63.7123 298.833 66.5272 298.833 72.1571M346.567 60.2143C352.192 60.2143 355.005 60.2143 356.752 61.9633C358.5 63.7123 358.5 66.5272 358.5 72.1571V107.986C358.5 113.616 358.5 116.431 356.752 118.18C355.005 119.929 352.192 119.929 346.567 119.929M12.4333 119.929H48.2333M12.4333 119.929C6.80791 119.929 3.99519 119.929 2.2476 121.678C0.5 123.427 0.5 126.242 0.5 131.871V167.7C0.5 173.33 0.5 176.145 2.2476 177.894C3.99519 179.643 6.80791 179.643 12.4333 179.643M60.1667 107.986V72.1571M60.1667 107.986C60.1667 113.616 60.1667 116.431 58.4191 118.18C56.6715 119.929 53.8588 119.929 48.2333 119.929M60.1667 107.986C60.1667 113.616 60.1667 116.431 61.9143 118.18C63.6619 119.929 66.4746 119.929 72.1 119.929M48.2333 119.929C53.8588 119.929 56.6715 119.929 58.4191 121.678C60.1667 123.427 60.1667 126.242 60.1667 131.871M72.1 119.929H107.9M72.1 119.929C66.4746 119.929 63.6619 119.929 61.9143 121.678C60.1667 123.427 60.1667 126.242 60.1667 131.871M119.833 107.986V72.1571M119.833 107.986C119.833 113.616 119.833 116.431 118.086 118.18C116.338 119.929 113.525 119.929 107.9 119.929M119.833 107.986C119.833 113.616 119.833 116.431 121.581 118.18C123.329 119.929 126.141 119.929 131.767 119.929M107.9 119.929C113.525 119.929 116.338 119.929 118.086 121.678C119.833 123.427 119.833 126.242 119.833 131.871M131.767 119.929H167.567M131.767 119.929C126.141 119.929 123.329 119.929 121.581 121.678C119.833 123.427 119.833 126.242 119.833 131.871M179.5 107.986V72.1571M179.5 107.986C179.5 113.616 179.5 116.431 177.752 118.18C176.005 119.929 173.192 119.929 167.567 119.929M179.5 107.986C179.5 113.616 179.5 116.431 181.248 118.18C182.995 119.929 185.808 119.929 191.433 119.929M167.567 119.929C173.192 119.929 176.005 119.929 177.752 121.678C179.5 123.427 179.5 126.242 179.5 131.871M191.433 119.929H227.233M191.433 119.929C185.808 119.929 182.995 119.929 181.248 121.678C179.5 123.427 179.5 126.242 179.5 131.871M239.167 107.986V72.1571M239.167 107.986C239.167 113.616 239.167 116.431 237.419 118.18C235.671 119.929 232.859 119.929 227.233 119.929M239.167 107.986C239.167 113.616 239.167 116.431 240.914 118.18C242.662 119.929 245.475 119.929 251.1 119.929M227.233 119.929C232.859 119.929 235.671 119.929 237.419 121.678C239.167 123.427 239.167 126.242 239.167 131.871M251.1 119.929H286.9M251.1 119.929C245.475 119.929 242.662 119.929 240.914 121.678C239.167 123.427 239.167 126.242 239.167 131.871M298.833 107.986V72.1571M298.833 107.986C298.833 113.616 298.833 116.431 297.086 118.18C295.338 119.929 292.525 119.929 286.9 119.929M298.833 107.986C298.833 113.616 298.833 116.431 300.581 118.18C302.329 119.929 305.141 119.929 310.767 119.929M286.9 119.929C292.525 119.929 295.338 119.929 297.086 121.678C298.833 123.427 298.833 126.242 298.833 131.871M310.767 119.929H346.567M310.767 119.929C305.141 119.929 302.329 119.929 300.581 121.678C298.833 123.427 298.833 126.242 298.833 131.871M346.567 119.929C352.192 119.929 355.005 119.929 356.752 121.678C358.5 123.427 358.5 126.242 358.5 131.871V167.7C358.5 173.33 358.5 176.145 356.752 177.894C355.005 179.643 352.192 179.643 346.567 179.643M12.4333 179.643H48.2333M12.4333 179.643C6.80791 179.643 3.99519 179.643 2.2476 181.392C0.5 183.141 0.5 185.956 0.5 191.586V227.414C0.5 233.044 0.5 235.859 2.2476 237.608C3.99519 239.357 6.80791 239.357 12.4333 239.357M60.1667 167.7V131.871M60.1667 167.7C60.1667 173.33 60.1667 176.145 58.4191 177.894C56.6715 179.643 53.8588 179.643 48.2333 179.643M60.1667 167.7C60.1667 173.33 60.1667 176.145 61.9143 177.894C63.6619 179.643 66.4746 179.643 72.1 179.643M48.2333 179.643C53.8588 179.643 56.6715 179.643 58.4191 181.392C60.1667 183.141 60.1667 185.956 60.1667 191.586M72.1 179.643H107.9M72.1 179.643C66.4746 179.643 63.6619 179.643 61.9143 181.392C60.1667 183.141 60.1667 185.956 60.1667 191.586M119.833 167.7V131.871M119.833 167.7C119.833 173.33 119.833 176.145 118.086 177.894C116.338 179.643 113.525 179.643 107.9 179.643M119.833 167.7C119.833 173.33 119.833 176.145 121.581 177.894C123.329 179.643 126.141 179.643 131.767 179.643M107.9 179.643C113.525 179.643 116.338 179.643 118.086 181.392C119.833 183.141 119.833 185.956 119.833 191.586M131.767 179.643H167.567M131.767 179.643C126.141 179.643 123.329 179.643 121.581 181.392C119.833 183.141 119.833 185.956 119.833 191.586M179.5 167.7V131.871M179.5 167.7C179.5 173.33 179.5 176.145 177.752 177.894C176.005 179.643 173.192 179.643 167.567 179.643M179.5 167.7C179.5 173.33 179.5 176.145 181.248 177.894C182.995 179.643 185.808 179.643 191.433 179.643M167.567 179.643C173.192 179.643 176.005 179.643 177.752 181.392C179.5 183.141 179.5 185.956 179.5 191.586M191.433 179.643H227.233M191.433 179.643C185.808 179.643 182.995 179.643 181.248 181.392C179.5 183.141 179.5 185.956 179.5 191.586M239.167 167.7V131.871M239.167 167.7C239.167 173.33 239.167 176.145 237.419 177.894C235.671 179.643 232.859 179.643 227.233 179.643M239.167 167.7C239.167 173.33 239.167 176.145 240.914 177.894C242.662 179.643 245.475 179.643 251.1 179.643M227.233 179.643C232.859 179.643 235.671 179.643 237.419 181.392C239.167 183.141 239.167 185.956 239.167 191.586M251.1 179.643H286.9M251.1 179.643C245.475 179.643 242.662 179.643 240.914 181.392C239.167 183.141 239.167 185.956 239.167 191.586M298.833 167.7V131.871M298.833 167.7C298.833 173.33 298.833 176.145 297.086 177.894C295.338 179.643 292.525 179.643 286.9 179.643M298.833 167.7C298.833 173.33 298.833 176.145 300.581 177.894C302.329 179.643 305.141 179.643 310.767 179.643M286.9 179.643C292.525 179.643 295.338 179.643 297.086 181.392C298.833 183.141 298.833 185.956 298.833 191.586M310.767 179.643H346.567M310.767 179.643C305.141 179.643 302.329 179.643 300.581 181.392C298.833 183.141 298.833 185.956 298.833 191.586M346.567 179.643C352.192 179.643 355.005 179.643 356.752 181.392C358.5 183.141 358.5 185.956 358.5 191.586V227.414C358.5 233.044 358.5 235.859 356.752 237.608C355.005 239.357 352.192 239.357 346.567 239.357M12.4333 239.357H48.2333M12.4333 239.357C6.80791 239.357 3.99519 239.357 2.2476 241.106C0.5 242.855 0.5 245.67 0.5 251.3V287.129C0.5 292.758 0.5 295.573 2.2476 297.322C3.99519 299.071 6.80791 299.071 12.4333 299.071M60.1667 227.414V191.586M60.1667 227.414C60.1667 233.044 60.1667 235.859 58.4191 237.608C56.6715 239.357 53.8588 239.357 48.2333 239.357M60.1667 227.414C60.1667 233.044 60.1667 235.859 61.9143 237.608C63.6619 239.357 66.4746 239.357 72.1 239.357M48.2333 239.357C53.8588 239.357 56.6715 239.357 58.4191 241.106C60.1667 242.855 60.1667 245.67 60.1667 251.3M72.1 239.357H107.9M72.1 239.357C66.4746 239.357 63.6619 239.357 61.9143 241.106C60.1667 242.855 60.1667 245.67 60.1667 251.3M119.833 227.414V191.586M119.833 227.414C119.833 233.044 119.833 235.859 118.086 237.608C116.338 239.357 113.525 239.357 107.9 239.357M119.833 227.414C119.833 233.044 119.833 235.859 121.581 237.608C123.329 239.357 126.141 239.357 131.767 239.357M107.9 239.357C113.525 239.357 116.338 239.357 118.086 241.106C119.833 242.855 119.833 245.67 119.833 251.3M131.767 239.357H167.567M131.767 239.357C126.141 239.357 123.329 239.357 121.581 241.106C119.833 242.855 119.833 245.67 119.833 251.3M179.5 227.414V191.586M179.5 227.414C179.5 233.044 179.5 235.859 177.752 237.608C176.005 239.357 173.192 239.357 167.567 239.357M179.5 227.414C179.5 233.044 179.5 235.859 181.248 237.608C182.995 239.357 185.808 239.357 191.433 239.357M167.567 239.357C173.192 239.357 176.005 239.357 177.752 241.106C179.5 242.855 179.5 245.67 179.5 251.3M191.433 239.357H227.233M191.433 239.357C185.808 239.357 182.995 239.357 181.248 241.106C179.5 242.855 179.5 245.67 179.5 251.3M239.167 227.414V191.586M239.167 227.414C239.167 233.044 239.167 235.859 237.419 237.608C235.671 239.357 232.859 239.357 227.233 239.357M239.167 227.414C239.167 233.044 239.167 235.859 240.914 237.608C242.662 239.357 245.475 239.357 251.1 239.357M227.233 239.357C232.859 239.357 235.671 239.357 237.419 241.106C239.167 242.855 239.167 245.67 239.167 251.3M251.1 239.357H286.9M251.1 239.357C245.475 239.357 242.662 239.357 240.914 241.106C239.167 242.855 239.167 245.67 239.167 251.3M298.833 227.414V191.586M298.833 227.414C298.833 233.044 298.833 235.859 297.086 237.608C295.338 239.357 292.525 239.357 286.9 239.357M298.833 227.414C298.833 233.044 298.833 235.859 300.581 237.608C302.329 239.357 305.141 239.357 310.767 239.357M286.9 239.357C292.525 239.357 295.338 239.357 297.086 241.106C298.833 242.855 298.833 245.67 298.833 251.3M310.767 239.357H346.567M310.767 239.357C305.141 239.357 302.329 239.357 300.581 241.106C298.833 242.855 298.833 245.67 298.833 251.3M346.567 239.357C352.192 239.357 355.005 239.357 356.752 241.106C358.5 242.855 358.5 245.67 358.5 251.3V287.129C358.5 292.758 358.5 295.573 356.752 297.322C355.005 299.071 352.192 299.071 346.567 299.071M12.4333 299.071H48.2333M12.4333 299.071C6.80791 299.071 3.99519 299.071 2.2476 300.82C0.5 302.569 0.5 305.384 0.5 311.014V346.843C0.5 352.473 0.5 355.288 2.2476 357.037C3.99519 358.786 6.80791 358.786 12.4333 358.786M60.1667 287.129V251.3M60.1667 287.129C60.1667 292.758 60.1667 295.573 58.4191 297.322C56.6715 299.071 53.8588 299.071 48.2333 299.071M60.1667 287.129C60.1667 292.758 60.1667 295.573 61.9143 297.322C63.6619 299.071 66.4746 299.071 72.1 299.071M48.2333 299.071C53.8588 299.071 56.6715 299.071 58.4191 300.82C60.1667 302.569 60.1667 305.384 60.1667 311.014M72.1 299.071H107.9M72.1 299.071C66.4746 299.071 63.6619 299.071 61.9143 300.82C60.1667 302.569 60.1667 305.384 60.1667 311.014M119.833 287.129V251.3M119.833 287.129C119.833 292.758 119.833 295.573 118.086 297.322C116.338 299.071 113.525 299.071 107.9 299.071M119.833 287.129C119.833 292.758 119.833 295.573 121.581 297.322C123.329 299.071 126.141 299.071 131.767 299.071M107.9 299.071C113.525 299.071 116.338 299.071 118.086 300.82C119.833 302.569 119.833 305.384 119.833 311.014M131.767 299.071H167.567M131.767 299.071C126.141 299.071 123.329 299.071 121.581 300.82C119.833 302.569 119.833 305.384 119.833 311.014M179.5 287.129V251.3M179.5 287.129C179.5 292.758 179.5 295.573 177.752 297.322C176.005 299.071 173.192 299.071 167.567 299.071M179.5 287.129C179.5 292.758 179.5 295.573 181.248 297.322C182.995 299.071 185.808 299.071 191.433 299.071M167.567 299.071C173.192 299.071 176.005 299.071 177.752 300.82C179.5 302.569 179.5 305.384 179.5 311.014M191.433 299.071H227.233M191.433 299.071C185.808 299.071 182.995 299.071 181.248 300.82C179.5 302.569 179.5 305.384 179.5 311.014M239.167 287.129V251.3M239.167 287.129C239.167 292.758 239.167 295.573 237.419 297.322C235.671 299.071 232.859 299.071 227.233 299.071M239.167 287.129C239.167 292.758 239.167 295.573 240.914 297.322C242.662 299.071 245.475 299.071 251.1 299.071M227.233 299.071C232.859 299.071 235.671 299.071 237.419 300.82C239.167 302.569 239.167 305.384 239.167 311.014M251.1 299.071H286.9M251.1 299.071C245.475 299.071 242.662 299.071 240.914 300.82C239.167 302.569 239.167 305.384 239.167 311.014M298.833 287.129V251.3M298.833 287.129C298.833 292.758 298.833 295.573 297.086 297.322C295.338 299.071 292.525 299.071 286.9 299.071M298.833 287.129C298.833 292.758 298.833 295.573 300.581 297.322C302.329 299.071 305.141 299.071 310.767 299.071M286.9 299.071C292.525 299.071 295.338 299.071 297.086 300.82C298.833 302.569 298.833 305.384 298.833 311.014M310.767 299.071H346.567M310.767 299.071C305.141 299.071 302.329 299.071 300.581 300.82C298.833 302.569 298.833 305.384 298.833 311.014M346.567 299.071C352.192 299.071 355.005 299.071 356.752 300.82C358.5 302.569 358.5 305.384 358.5 311.014V346.843C358.5 352.473 358.5 355.288 356.752 357.037C355.005 358.786 352.192 358.786 346.567 358.786M12.4333 358.786H48.2333M12.4333 358.786C6.80791 358.786 3.99519 358.786 2.2476 360.535C0.5 362.284 0.5 365.099 0.5 370.729V406.557C0.5 412.187 0.5 415.002 2.2476 416.751C3.99519 418.5 6.80791 418.5 12.4333 418.5H48.2333C53.8588 418.5 56.6715 418.5 58.4191 416.751C60.1667 415.002 60.1667 412.187 60.1667 406.557M60.1667 346.843V311.014M60.1667 346.843C60.1667 352.473 60.1667 355.288 58.4191 357.037C56.6715 358.786 53.8588 358.786 48.2333 358.786M60.1667 346.843C60.1667 352.473 60.1667 355.288 61.9143 357.037C63.6619 358.786 66.4746 358.786 72.1 358.786M48.2333 358.786C53.8588 358.786 56.6715 358.786 58.4191 360.535C60.1667 362.284 60.1667 365.099 60.1667 370.729M72.1 358.786H107.9M72.1 358.786C66.4746 358.786 63.6619 358.786 61.9143 360.535C60.1667 362.284 60.1667 365.099 60.1667 370.729M119.833 346.843V311.014M119.833 346.843C119.833 352.473 119.833 355.288 118.086 357.037C116.338 358.786 113.525 358.786 107.9 358.786M119.833 346.843C119.833 352.473 119.833 355.288 121.581 357.037C123.329 358.786 126.141 358.786 131.767 358.786M107.9 358.786C113.525 358.786 116.338 358.786 118.086 360.535C119.833 362.284 119.833 365.099 119.833 370.729M131.767 358.786H167.567M131.767 358.786C126.141 358.786 123.329 358.786 121.581 360.535C119.833 362.284 119.833 365.099 119.833 370.729M179.5 346.843V311.014M179.5 346.843C179.5 352.473 179.5 355.288 177.752 357.037C176.005 358.786 173.192 358.786 167.567 358.786M179.5 346.843C179.5 352.473 179.5 355.288 181.248 357.037C182.995 358.786 185.808 358.786 191.433 358.786M167.567 358.786C173.192 358.786 176.005 358.786 177.752 360.535C179.5 362.284 179.5 365.099 179.5 370.729M191.433 358.786H227.233M191.433 358.786C185.808 358.786 182.995 358.786 181.248 360.535C179.5 362.284 179.5 365.099 179.5 370.729M239.167 346.843V311.014M239.167 346.843C239.167 352.473 239.167 355.288 237.419 357.037C235.671 358.786 232.859 358.786 227.233 358.786M239.167 346.843C239.167 352.473 239.167 355.288 240.914 357.037C242.662 358.786 245.475 358.786 251.1 358.786M227.233 358.786C232.859 358.786 235.671 358.786 237.419 360.535C239.167 362.284 239.167 365.099 239.167 370.729M251.1 358.786H286.9M251.1 358.786C245.475 358.786 242.662 358.786 240.914 360.535C239.167 362.284 239.167 365.099 239.167 370.729M298.833 346.843V311.014M298.833 346.843C298.833 352.473 298.833 355.288 297.086 357.037C295.338 358.786 292.525 358.786 286.9 358.786M298.833 346.843C298.833 352.473 298.833 355.288 300.581 357.037C302.329 358.786 305.141 358.786 310.767 358.786M286.9 358.786C292.525 358.786 295.338 358.786 297.086 360.535C298.833 362.284 298.833 365.099 298.833 370.729M310.767 358.786H346.567M310.767 358.786C305.141 358.786 302.329 358.786 300.581 360.535C298.833 362.284 298.833 365.099 298.833 370.729M346.567 358.786C352.192 358.786 355.005 358.786 356.752 360.535C358.5 362.284 358.5 365.099 358.5 370.729V406.557C358.5 412.187 358.5 415.002 356.752 416.751C355.005 418.5 352.192 418.5 346.567 418.5H310.767C305.141 418.5 302.329 418.5 300.581 416.751C298.833 415.002 298.833 412.187 298.833 406.557M60.1667 406.557V370.729M60.1667 406.557C60.1667 412.187 60.1667 415.002 61.9143 416.751C63.6619 418.5 66.4746 418.5 72.1 418.5H107.9C113.525 418.5 116.338 418.5 118.086 416.751C119.833 415.002 119.833 412.187 119.833 406.557M119.833 406.557V370.729M119.833 406.557C119.833 412.187 119.833 415.002 121.581 416.751C123.329 418.5 126.141 418.5 131.767 418.5H167.567C173.192 418.5 176.005 418.5 177.752 416.751C179.5 415.002 179.5 412.187 179.5 406.557M179.5 406.557V370.729M179.5 406.557C179.5 412.187 179.5 415.002 181.248 416.751C182.995 418.5 185.808 418.5 191.433 418.5H227.233C232.859 418.5 235.671 418.5 237.419 416.751C239.167 415.002 239.167 412.187 239.167 406.557M239.167 406.557V370.729M239.167 406.557C239.167 412.187 239.167 415.002 240.914 416.751C242.662 418.5 245.475 418.5 251.1 418.5H286.9C292.525 418.5 295.338 418.5 297.086 416.751C298.833 415.002 298.833 412.187 298.833 406.557M298.833 406.557V370.729" stroke="url(#paint0_linear_0_4)"/>
<defs>
<linearGradient id="paint0_linear_0_4" x1="347.613" y1="-9.63192" x2="78.3504" y2="287.644" gradientUnits="userSpaceOnUse">
<stop stop-color="white"/>
<stop offset="1" stop-color="white" stop-opacity="0"/>
</linearGradient>
</defs>
</svg>
