<svg width="17" height="17" viewBox="0 0 17 17" fill="none" xmlns="http://www.w3.org/2000/svg">
<path d="M8.33333 7.5V5L11.6667 8.33333L8.33333 11.6667V9.16667H5V7.5H8.33333ZM8.33333 0C12.9333 0 16.6667 3.73333 16.6667 8.33333C16.6667 12.9333 12.9333 16.6667 8.33333 16.6667C3.73333 16.6667 0 12.9333 0 8.33333C0 3.73333 3.73333 0 8.33333 0ZM8.33333 15C12.0167 15 15 12.0167 15 8.33333C15 4.65 12.0167 1.66667 8.33333 1.66667C4.65 1.66667 1.66667 4.65 1.66667 8.33333C1.66667 12.0167 4.65 15 8.33333 15Z" fill="white"/>
</svg>
