<svg width="21" height="21" viewBox="0 0 21 21" fill="none" xmlns="http://www.w3.org/2000/svg" aria-hidden="true">
  <path d="M9.625 9.625V6.125H11.375V9.625H14.875V11.375H11.375V14.875H9.625V11.375H6.125V9.625H9.625ZM10.5 19.25C5.66751 19.25 1.75 15.3324 1.75 10.5C1.75 5.66751 5.66751 1.75 10.5 1.75C15.3324 1.75 19.25 5.66751 19.25 10.5C19.25 15.3324 15.3324 19.25 10.5 19.25ZM10.5 17.5C14.366 17.5 17.5 14.366 17.5 10.5C17.5 6.63401 14.366 3.5 10.5 3.5C6.63401 3.5 3.5 6.63401 3.5 10.5C3.5 14.366 6.63401 17.5 10.5 17.5Z" fill="currentColor"/>
</svg>
