<svg preserveAspectRatio="none" width="100%" height="100%" overflow="visible" style="display: block;" viewBox="0 0 28 28" fill="none" xmlns="http://www.w3.org/2000/svg">
<g id="Frame">
<path id="Vector" d="M10.9265 12.4625C12.019 14.3836 13.6164 15.981 15.5375 17.0735L16.5695 15.6288C16.9126 15.1486 17.5602 15.0002 18.0782 15.2831C19.7195 16.1797 21.5333 16.7245 23.4254 16.8743C24.0322 16.9224 24.5 17.4287 24.5 18.0374V23.244C24.5 23.8421 24.0476 24.3433 23.4526 24.4044C22.8343 24.468 22.2106 24.5 21.5833 24.5C11.5962 24.5 3.5 16.4038 3.5 6.41667C3.5 5.78931 3.53199 5.16566 3.59554 4.54739C3.65668 3.95237 4.15793 3.5 4.75609 3.5H9.96266C10.5713 3.5 11.0777 3.96788 11.1257 4.5746C11.2754 6.46669 11.8203 8.28058 12.7169 9.92185C12.9998 10.4398 12.8514 11.0875 12.3712 11.4305L10.9265 12.4625ZM7.98496 11.6961L10.2016 10.1128C9.57305 8.756 9.14233 7.31713 8.92182 5.83333H5.84391C5.83687 6.02737 5.83333 6.22183 5.83333 6.41667C5.83333 15.1151 12.8849 22.1667 21.5833 22.1667C21.7782 22.1667 21.9726 22.1632 22.1667 22.156V19.0781C20.6829 18.8576 19.244 18.4269 17.8872 17.7984L16.3039 20.0151C15.6634 19.7662 15.0449 19.4734 14.452 19.1404L14.3842 19.1018C12.098 17.8018 10.1982 15.902 8.89817 13.6158L8.8596 13.548C8.52657 12.9551 8.2338 12.3366 7.98496 11.6961Z" fill="var(--fill-0, white)"/>
</g>
</svg>
