<svg width="24" height="24" viewBox="0 0 24 24" fill="none" xmlns="http://www.w3.org/2000/svg">
<path d="M0.283302 6.63619L11.0711 0.166149C11.4406 -0.0554589 11.9022 -0.0553773 12.2716 0.166359L23.0502 6.63617C23.2259 6.7416 23.3333 6.93145 23.3333 7.13632V21.9728C23.3333 22.6171 22.811 23.1395 22.1667 23.1395H1.16667C0.52234 23.1395 0 22.6171 0 21.9728V7.13646C0 6.93151 0.107543 6.74161 0.283302 6.63619ZM2.33333 8.12749V20.8061H21V8.12695L11.671 2.52721L2.33333 8.12749ZM11.7363 14.6208L17.9149 9.41399L19.4185 11.1983L11.753 17.6581L3.92468 11.2064L5.40866 9.4058L11.7363 14.6208Z" fill="white"/>
</svg>
