<svg width="27" height="32" viewBox="0 0 27 32" fill="none" xmlns="http://www.w3.org/2000/svg">
<path d="M26.3852 7.11938V25.0594C26.3836 27.3658 24.5065 29.2364 22.1921 29.2364H21.2472C21.1655 29.0879 21.087 28.9363 21.0021 28.7879C21.1959 28.7528 21.3977 28.7177 21.5995 28.673C21.8414 28.6235 22.0608 28.4942 22.221 28.3059C24.026 28.2468 25.4595 26.772 25.4595 24.9716V10.2174C25.4595 8.3739 23.9603 6.87996 22.1105 6.87996H4.39486C2.54498 6.87996 1.04586 8.3739 1.04586 10.2174V24.9732C1.04907 26.8151 2.54659 28.3059 4.39486 28.3059H15.7824L15.6751 29.2316H4.19146C1.87711 29.2316 0 27.361 0 25.0546V7.11938C0 4.81303 1.87711 2.94241 4.19146 2.94081H6.74285C6.74285 2.92326 6.74285 2.9041 6.74285 2.88335V1.37824C6.71722 0.642445 7.29541 0.0263546 8.03376 0.000817137C8.77211 -0.0247203 9.39034 0.551468 9.41596 1.28727C9.41757 1.31759 9.41757 1.34951 9.41596 1.37984V2.94241H17.0958C17.0958 2.92485 17.0958 2.9057 17.0958 2.88495V1.37824C17.0958 0.642445 17.6948 0.0455076 18.4331 0.0455076C19.1715 0.0455076 19.7705 0.642445 19.7705 1.37824V2.88335C19.7705 2.9041 19.7705 2.92326 19.7705 2.94081H22.205C24.5161 2.94879 26.3836 4.81622 26.3852 7.11938Z" fill="url(#paint0_linear_2001_197)"/>
<path d="M21.6678 27.1166C21.607 27.0831 21.5461 27.0448 21.4853 27.0112L17.9617 24.9443C17.7743 24.8342 17.5917 24.7161 17.4411 24.6458C17.3723 24.6203 17.2986 24.6091 17.2249 24.6091C16.9206 24.5948 16.6563 24.8134 16.6147 25.1135C16.5522 25.7519 16.4722 26.376 16.3985 27.0081C16.3488 27.4406 16.2976 27.8731 16.2479 28.3073C16.2111 28.6169 16.1743 28.925 16.1406 29.233H20.7149C20.5883 28.9968 20.4586 28.7542 20.3305 28.5275C20.2904 28.4573 20.3129 28.435 20.3801 28.4254C20.4714 28.411 20.5611 28.3935 20.6508 28.3759L21.0368 28.3073C21.197 28.2785 21.3443 28.2498 21.4981 28.2163C21.82 28.154 22.0282 27.8428 21.9657 27.5236C21.9305 27.348 21.8184 27.1964 21.6582 27.1134L21.6678 27.1166Z" fill="url(#paint1_linear_2001_197)"/>
<path d="M21.9803 27.747C21.9419 27.9944 21.7481 28.1876 21.4998 28.2259C21.3461 28.2594 21.1923 28.2897 21.0386 28.3168L20.651 28.3871C20.5613 28.4046 20.4716 28.4222 20.3819 28.435C20.2922 28.4477 20.2906 28.4685 20.3306 28.5371C20.4588 28.7733 20.5885 29.0159 20.7166 29.2458L21.282 30.2816C21.3188 30.3487 21.3557 30.4157 21.3893 30.4859C21.5399 30.7812 21.4213 31.1419 21.125 31.292C21.125 31.292 21.1234 31.292 21.1234 31.2935C20.6974 31.5074 20.2682 31.7181 19.8421 31.932C19.754 31.9751 19.6563 31.9974 19.5586 31.999C19.3232 31.9958 19.1102 31.8586 19.0125 31.6447C18.6922 30.9935 18.3686 30.3407 18.0435 29.6863C18.0099 29.6192 17.9939 29.5873 17.9714 29.5873C17.949 29.5873 17.9266 29.6097 17.8817 29.6512L17.1162 30.3598C17.0713 30.4045 17.0217 30.4428 16.9688 30.4763C16.8647 30.537 16.7494 30.5705 16.6293 30.5753C16.5332 30.5753 16.4403 30.5466 16.3602 30.4923C16.1472 30.3742 16.0287 30.1396 16.0623 29.8986C16.0879 29.6831 16.1119 29.4676 16.1376 29.2601C16.1728 28.9505 16.208 28.6408 16.2449 28.3312C16.2945 27.8971 16.3458 27.4629 16.3954 27.0304C16.4691 26.392 16.5556 25.7663 16.6117 25.1326C16.6517 24.831 16.9176 24.6107 17.2219 24.6251C17.2955 24.6251 17.3692 24.6363 17.4397 24.6618C17.5886 24.732 17.7712 24.8501 17.9602 24.9603C19.1342 25.6482 20.3098 26.3409 21.4838 27.0352C21.5447 27.0687 21.6039 27.107 21.6648 27.1405C21.8938 27.2491 22.0236 27.4965 21.9803 27.747Z" fill="url(#paint2_linear_2001_197)"/>
<path d="M11.2324 16.6351C11.2484 16.501 11.2757 16.3701 11.3125 16.2408C11.4566 15.7524 11.7834 15.3374 12.2254 15.0805C12.9782 14.6415 13.928 14.7309 14.583 15.3039C14.6087 15.3263 14.6087 15.339 14.583 15.3566C14.4821 15.4172 14.3844 15.4827 14.2915 15.5545C14.2707 15.5753 14.2371 15.5753 14.2163 15.5545C13.5067 15.0278 12.5041 15.1746 11.9756 15.8801C11.809 16.102 11.7049 16.3637 11.6697 16.6399C11.5784 17.5113 12.2142 18.2918 13.0887 18.3828C13.9216 18.469 14.6791 17.8976 14.8217 17.0756C14.8793 16.758 14.8345 16.4308 14.6951 16.1387C14.6759 16.1115 14.6823 16.0732 14.7096 16.0541C14.7112 16.0525 14.7128 16.0525 14.7144 16.0509C14.7976 15.9807 14.8745 15.9104 14.961 15.8386C14.9946 15.8083 15.0091 15.8179 15.0283 15.853C15.158 16.0924 15.2365 16.3542 15.2621 16.6255C15.3006 17.0117 15.2253 17.3996 15.0427 17.7427C14.8137 18.2024 14.41 18.552 13.9216 18.7116C13.1704 18.9877 12.3247 18.7802 11.7882 18.1865C11.4951 17.888 11.3093 17.5017 11.2613 17.0884C11.2613 17.0564 11.2516 17.0261 11.2452 16.9942L11.2324 16.6351Z" fill="url(#paint3_linear_2001_197)"/>
<path d="M12.6247 16.1179C12.7096 16.1227 12.7929 16.1515 12.8618 16.2009C13.0059 16.3047 13.1308 16.434 13.2301 16.5824C13.2542 16.6143 13.2766 16.6478 13.2958 16.6814C13.315 16.7133 13.3278 16.7069 13.3454 16.6814C13.456 16.5233 13.5761 16.3717 13.7042 16.2265C14.0261 15.8482 14.4185 15.537 14.8606 15.3087C15.1473 15.1635 15.4596 15.0693 15.7799 15.0342H15.8248C15.8504 15.031 15.8744 15.0486 15.8792 15.0741C15.8888 15.098 15.8808 15.1268 15.8584 15.1411C15.8504 15.1475 15.8408 15.1523 15.8312 15.1571C15.4212 15.3646 15.04 15.6263 14.6972 15.9328C14.2904 16.2871 13.9429 16.7053 13.6706 17.1714C13.5553 17.3693 13.4544 17.5752 13.3711 17.789C13.3599 17.8226 13.3454 17.8513 13.3038 17.8529C13.2622 17.8545 13.2493 17.8226 13.2349 17.7906C13.1132 17.4986 12.9514 17.224 12.7544 16.9766C12.6535 16.8521 12.5318 16.7452 12.3973 16.6574C12.2692 16.5888 12.2227 16.4292 12.2916 16.3031C12.3188 16.252 12.3636 16.2121 12.4165 16.1882C12.4806 16.1499 12.551 16.1259 12.6247 16.1179Z" fill="url(#paint4_linear_2001_197)"/>
<path d="M7.22354 12.9832C6.35706 12.9848 5.65395 12.2841 5.65235 11.4206C5.65074 10.5572 6.35386 9.85647 7.22034 9.85488C8.08682 9.85328 8.78993 10.554 8.79153 11.4174V11.419C8.79153 12.2825 8.09002 12.9816 7.22354 12.9832ZM7.22354 10.0879C6.48519 10.0863 5.88618 10.6832 5.88458 11.419C5.88298 12.1548 6.48199 12.7518 7.22034 12.7534C7.95869 12.755 8.5577 12.158 8.5593 11.4222C8.5593 11.4206 8.5593 11.4206 8.5593 11.419C8.5609 10.6832 7.96349 10.0847 7.22514 10.0831H7.22354V10.0879Z" fill="url(#paint5_linear_2001_197)"/>
<path d="M13.1516 12.9832C12.2851 12.9832 11.582 12.2825 11.582 11.419C11.582 10.5556 12.2851 9.85487 13.1516 9.85487C14.0181 9.85487 14.7212 10.5556 14.7212 11.419C14.7196 12.2825 14.0181 12.9816 13.1516 12.9832ZM13.1516 10.0879C12.4133 10.0879 11.8143 10.6848 11.8143 11.4206C11.8143 12.1564 12.4133 12.7534 13.1516 12.7534C13.89 12.7534 14.489 12.1564 14.489 11.4206V11.419C14.4906 10.6816 13.8916 10.0847 13.1516 10.0831V10.0879Z" fill="url(#paint6_linear_2001_197)"/>
<path d="M19.0794 12.9832C18.2129 12.9832 17.5098 12.2825 17.5098 11.419C17.5098 10.5556 18.2129 9.85487 19.0794 9.85487C19.9458 9.85487 20.649 10.5556 20.649 11.419C20.649 12.2825 19.9458 12.9832 19.0794 12.9832ZM19.0794 10.0879C18.341 10.0879 17.742 10.6848 17.742 11.4206C17.742 12.1564 18.341 12.7534 19.0794 12.7534C19.8177 12.7534 20.4167 12.1564 20.4167 11.4206V11.419C20.4183 10.6832 19.8209 10.0847 19.0826 10.0831C19.081 10.0831 19.081 10.0831 19.0794 10.0831V10.0879Z" fill="url(#paint7_linear_2001_197)"/>
<path d="M7.22354 23.6355C6.35706 23.6371 5.65395 22.9364 5.65235 22.0729C5.65074 21.2095 6.35386 20.5088 7.22034 20.5072C8.08682 20.5056 8.78993 21.2063 8.79153 22.0697C8.79153 22.0713 8.79153 22.0713 8.79153 22.0729C8.78993 22.9348 8.08842 23.6339 7.22354 23.6355ZM7.22354 20.7402C6.48519 20.7386 5.88618 21.3355 5.88458 22.0713C5.88298 22.8071 6.48199 23.4041 7.22034 23.4057C7.95709 23.4073 8.55449 22.8151 8.5593 22.0809C8.5641 21.3451 7.9683 20.745 7.22995 20.7402C7.22835 20.7402 7.22514 20.7402 7.22354 20.7402Z" fill="url(#paint8_linear_2001_197)"/>
<path d="M13.1516 23.6355C12.2851 23.6355 11.582 22.9348 11.582 22.0713C11.582 21.2079 12.2851 20.5072 13.1516 20.5072C14.0181 20.5072 14.7212 21.2079 14.7212 22.0713V22.0729C14.7196 22.9364 14.0181 23.6339 13.1516 23.6355ZM13.1516 20.7402C12.4133 20.7402 11.8143 21.3371 11.8143 22.0729C11.8143 22.8087 12.4133 23.4057 13.1516 23.4057C13.89 23.4057 14.489 22.8087 14.489 22.0729C14.4874 21.3371 13.89 20.7402 13.1516 20.7402Z" fill="url(#paint9_linear_2001_197)"/>
<path d="M19.0794 23.6355C18.2129 23.6355 17.5098 22.9348 17.5098 22.0713C17.5098 21.2079 18.2129 20.5072 19.0794 20.5072C19.9458 20.5072 20.649 21.2079 20.649 22.0713V22.0729C20.6474 22.9364 19.9458 23.6355 19.0794 23.6355ZM19.0794 20.7402C18.341 20.7402 17.742 21.3371 17.742 22.0729C17.742 22.8087 18.341 23.4057 19.0794 23.4057C19.8177 23.4057 20.4167 22.8087 20.4167 22.0729C20.4167 21.3371 19.8177 20.7402 19.0794 20.7402Z" fill="url(#paint10_linear_2001_197)"/>
<path d="M7.22354 18.3078C6.35706 18.3094 5.65395 17.6087 5.65235 16.7452C5.65074 15.8817 6.35386 15.181 7.22034 15.1794C8.08682 15.1778 8.78993 15.8785 8.79153 16.742V16.7436C8.78993 17.6071 8.09002 18.3062 7.22354 18.3078ZM7.22354 15.4109C6.48519 15.4093 5.88618 16.0062 5.88458 16.742C5.88298 17.4778 6.48199 18.0747 7.22034 18.0763C7.95869 18.0779 8.5577 17.481 8.5593 16.7452V16.7436C8.5577 16.0078 7.96189 15.4125 7.22354 15.4109Z" fill="url(#paint11_linear_2001_197)"/>
<path d="M19.0794 18.3078C18.2129 18.3078 17.5098 17.6071 17.5098 16.7436C17.5098 15.8801 18.2129 15.1794 19.0794 15.1794C19.9458 15.1794 20.649 15.8801 20.649 16.7436C20.6474 17.6071 19.9458 18.3062 19.0794 18.3078ZM19.0794 15.4109C18.341 15.4109 17.742 16.0078 17.742 16.7436C17.742 17.4794 18.341 18.0763 19.0794 18.0763C19.8177 18.0763 20.4167 17.4794 20.4167 16.7436C20.4151 16.0078 19.8177 15.4109 19.0794 15.4109Z" fill="url(#paint12_linear_2001_197)"/>
<defs>
<linearGradient id="paint0_linear_2001_197" x1="0" y1="14.6177" x2="26.3852" y2="14.6177" gradientUnits="userSpaceOnUse">
<stop stop-color="#006DEF"/>
<stop offset="1" stop-color="#009EFF"/>
</linearGradient>
<linearGradient id="paint1_linear_2001_197" x1="16.1406" y1="26.9206" x2="21.9765" y2="26.9206" gradientUnits="userSpaceOnUse">
<stop stop-color="#006DEF"/>
<stop offset="1" stop-color="#009EFF"/>
</linearGradient>
<linearGradient id="paint2_linear_2001_197" x1="16.0566" y1="28.3116" x2="21.9884" y2="28.3116" gradientUnits="userSpaceOnUse">
<stop stop-color="#006DEF"/>
<stop offset="1" stop-color="#009EFF"/>
</linearGradient>
<linearGradient id="paint3_linear_2001_197" x1="11.2324" y1="16.8177" x2="15.2669" y2="16.8177" gradientUnits="userSpaceOnUse">
<stop stop-color="#006DEF"/>
<stop offset="1" stop-color="#009EFF"/>
</linearGradient>
<linearGradient id="paint4_linear_2001_197" x1="12.2675" y1="16.4432" x2="15.884" y2="16.4432" gradientUnits="userSpaceOnUse">
<stop stop-color="#006DEF"/>
<stop offset="1" stop-color="#009EFF"/>
</linearGradient>
<linearGradient id="paint5_linear_2001_197" x1="5.65235" y1="11.4189" x2="8.79153" y2="11.4189" gradientUnits="userSpaceOnUse">
<stop stop-color="#006DEF"/>
<stop offset="1" stop-color="#009EFF"/>
</linearGradient>
<linearGradient id="paint6_linear_2001_197" x1="11.582" y1="11.4189" x2="14.7212" y2="11.4189" gradientUnits="userSpaceOnUse">
<stop stop-color="#006DEF"/>
<stop offset="1" stop-color="#009EFF"/>
</linearGradient>
<linearGradient id="paint7_linear_2001_197" x1="17.5098" y1="11.4189" x2="20.649" y2="11.4189" gradientUnits="userSpaceOnUse">
<stop stop-color="#006DEF"/>
<stop offset="1" stop-color="#009EFF"/>
</linearGradient>
<linearGradient id="paint8_linear_2001_197" x1="5.65235" y1="22.0712" x2="8.79153" y2="22.0712" gradientUnits="userSpaceOnUse">
<stop stop-color="#006DEF"/>
<stop offset="1" stop-color="#009EFF"/>
</linearGradient>
<linearGradient id="paint9_linear_2001_197" x1="11.582" y1="22.0712" x2="14.7212" y2="22.0712" gradientUnits="userSpaceOnUse">
<stop stop-color="#006DEF"/>
<stop offset="1" stop-color="#009EFF"/>
</linearGradient>
<linearGradient id="paint10_linear_2001_197" x1="17.5098" y1="22.0712" x2="20.649" y2="22.0712" gradientUnits="userSpaceOnUse">
<stop stop-color="#006DEF"/>
<stop offset="1" stop-color="#009EFF"/>
</linearGradient>
<linearGradient id="paint11_linear_2001_197" x1="5.65235" y1="16.7434" x2="8.79153" y2="16.7434" gradientUnits="userSpaceOnUse">
<stop stop-color="#006DEF"/>
<stop offset="1" stop-color="#009EFF"/>
</linearGradient>
<linearGradient id="paint12_linear_2001_197" x1="17.5098" y1="16.7434" x2="20.649" y2="16.7434" gradientUnits="userSpaceOnUse">
<stop stop-color="#006DEF"/>
<stop offset="1" stop-color="#009EFF"/>
</linearGradient>
</defs>
</svg>
