<svg width="29" height="42" viewBox="0 0 29 42" fill="none" xmlns="http://www.w3.org/2000/svg">
<path d="M7.96137 41.3176L14.7978 34.5316L19.0381 30.3225L20.8553 28.5186C24.4899 24.9108 24.4899 18.9838 20.8553 15.376L12.3747 23.7941L8.13445 28.0032L0.51922 35.5624L1.47112 36.5073L5.97103 32.0405C6.23064 31.7828 6.66332 31.7828 6.92293 32.0405C7.18254 32.2982 7.18254 32.7277 6.92293 32.9854L0 39.8573L0.951903 40.8022L10.5575 31.2674C10.8171 31.0097 11.2498 31.0097 11.5094 31.2674C11.769 31.5251 11.769 31.9546 11.5094 32.2123L7.00947 36.6791L7.96137 37.624L11.2498 34.3598C11.5094 34.1021 11.9421 34.1021 12.2017 34.3598C12.4613 34.6175 12.4613 35.047 12.2017 35.3047L7.00947 40.4586L7.96137 41.3176Z" fill="#D07D92"/>
<path d="M20.7683 1.52588e-05L13.9319 6.78607L9.69161 10.9951L7.87434 12.799C4.2398 16.4068 4.2398 22.3339 7.87434 25.9416L16.3549 17.5235L20.5952 13.3144L28.2105 5.75528L27.2586 4.81038L22.7586 9.27715C22.499 9.53485 22.0664 9.53485 21.8067 9.27715C21.5471 9.01946 21.5471 8.58996 21.8067 8.33226L28.7297 1.46031L27.7778 0.515412L18.2587 10.0502C17.9991 10.3079 17.5664 10.3079 17.3068 10.0502C17.0472 9.79255 17.0472 9.36305 17.3068 9.10536L21.8067 4.63858L20.8548 3.69369L17.5664 6.95787C17.3068 7.21557 16.8742 7.21557 16.6145 6.95787C16.3549 6.70017 16.3549 6.27067 16.6145 6.01298L21.8067 0.85901L20.7683 1.52588e-05Z" fill="#008BF1"/>
</svg>
