<svg width="259" height="302" viewBox="0 0 259 302" fill="none" xmlns="http://www.w3.org/2000/svg">
<path opacity="0.37" d="M9.1 43.5H34.9M9.1 43.5C5.04592 43.5 3.01888 43.5 1.75944 42.2406C0.5 40.9811 0.5 38.9541 0.5 34.9V9.1C0.5 5.04592 0.5 3.01888 1.75944 1.75944C3.01888 0.5 5.04592 0.5 9.1 0.5H34.9C38.9541 0.5 40.9811 0.5 42.2406 1.75944C43.5 3.01888 43.5 5.04592 43.5 9.1M9.1 43.5C5.04592 43.5 3.01888 43.5 1.75944 44.7594C0.5 46.0189 0.5 48.0459 0.5 52.1V77.9C0.5 81.9541 0.5 83.9811 1.75944 85.2406C3.01888 86.5 5.04592 86.5 9.1 86.5M43.5 34.9V9.1M43.5 34.9C43.5 38.9541 43.5 40.9811 42.2406 42.2406C40.9811 43.5 38.9541 43.5 34.9 43.5M43.5 34.9C43.5 38.9541 43.5 40.9811 44.7594 42.2406C46.0189 43.5 48.0459 43.5 52.1 43.5M34.9 43.5C38.9541 43.5 40.9811 43.5 42.2406 44.7594C43.5 46.0189 43.5 48.0459 43.5 52.1M43.5 9.1C43.5 5.04592 43.5 3.01888 44.7594 1.75944C46.0189 0.5 48.0459 0.5 52.1 0.5H77.9C81.9541 0.5 83.9811 0.5 85.2406 1.75944C86.5 3.01888 86.5 5.04592 86.5 9.1M52.1 43.5H77.9M52.1 43.5C48.0459 43.5 46.0189 43.5 44.7594 44.7594C43.5 46.0189 43.5 48.0459 43.5 52.1M86.5 34.9V9.1M86.5 34.9C86.5 38.9541 86.5 40.9811 85.2406 42.2406C83.9811 43.5 81.9541 43.5 77.9 43.5M86.5 34.9C86.5 38.9541 86.5 40.9811 87.7594 42.2406C89.0189 43.5 91.0459 43.5 95.1 43.5M77.9 43.5C81.9541 43.5 83.9811 43.5 85.2406 44.7594C86.5 46.0189 86.5 48.0459 86.5 52.1M86.5 9.1C86.5 5.04592 86.5 3.01888 87.7594 1.75944C89.0189 0.5 91.0459 0.5 95.1 0.5H120.9C124.954 0.5 126.981 0.5 128.241 1.75944C129.5 3.01888 129.5 5.04592 129.5 9.1M95.1 43.5H120.9M95.1 43.5C91.0459 43.5 89.0189 43.5 87.7594 44.7594C86.5 46.0189 86.5 48.0459 86.5 52.1M129.5 34.9V9.1M129.5 34.9C129.5 38.9541 129.5 40.9811 128.241 42.2406C126.981 43.5 124.954 43.5 120.9 43.5M129.5 34.9C129.5 38.9541 129.5 40.9811 130.759 42.2406C132.019 43.5 134.046 43.5 138.1 43.5M120.9 43.5C124.954 43.5 126.981 43.5 128.241 44.7594C129.5 46.0189 129.5 48.0459 129.5 52.1M129.5 9.1C129.5 5.04592 129.5 3.01888 130.759 1.75944C132.019 0.5 134.046 0.5 138.1 0.5H163.9C167.954 0.5 169.981 0.5 171.241 1.75944C172.5 3.01888 172.5 5.04592 172.5 9.1M138.1 43.5H163.9M138.1 43.5C134.046 43.5 132.019 43.5 130.759 44.7594C129.5 46.0189 129.5 48.0459 129.5 52.1M172.5 34.9V9.1M172.5 34.9C172.5 38.9541 172.5 40.9811 171.241 42.2406C169.981 43.5 167.954 43.5 163.9 43.5M172.5 34.9C172.5 38.9541 172.5 40.9811 173.759 42.2406C175.019 43.5 177.046 43.5 181.1 43.5M163.9 43.5C167.954 43.5 169.981 43.5 171.241 44.7594C172.5 46.0189 172.5 48.0459 172.5 52.1M172.5 9.1C172.5 5.04592 172.5 3.01888 173.759 1.75944C175.019 0.5 177.046 0.5 181.1 0.5H206.9C210.954 0.5 212.981 0.5 214.241 1.75944C215.5 3.01888 215.5 5.04592 215.5 9.1M181.1 43.5H206.9M181.1 43.5C177.046 43.5 175.019 43.5 173.759 44.7594C172.5 46.0189 172.5 48.0459 172.5 52.1M215.5 34.9V9.1M215.5 34.9C215.5 38.9541 215.5 40.9811 214.241 42.2406C212.981 43.5 210.954 43.5 206.9 43.5M215.5 34.9C215.5 38.9541 215.5 40.9811 216.759 42.2406C218.019 43.5 220.046 43.5 224.1 43.5M206.9 43.5C210.954 43.5 212.981 43.5 214.241 44.7594C215.5 46.0189 215.5 48.0459 215.5 52.1M215.5 9.1C215.5 5.04592 215.5 3.01888 216.759 1.75944C218.019 0.5 220.046 0.5 224.1 0.5H249.9C253.954 0.5 255.981 0.5 257.241 1.75944C258.5 3.01888 258.5 5.04592 258.5 9.1V34.9C258.5 38.9541 258.5 40.9811 257.241 42.2406C255.981 43.5 253.954 43.5 249.9 43.5M224.1 43.5H249.9M224.1 43.5C220.046 43.5 218.019 43.5 216.759 44.7594C215.5 46.0189 215.5 48.0459 215.5 52.1M249.9 43.5C253.954 43.5 255.981 43.5 257.241 44.7594C258.5 46.0189 258.5 48.0459 258.5 52.1V77.9C258.5 81.9541 258.5 83.9811 257.241 85.2406C255.981 86.5 253.954 86.5 249.9 86.5M9.1 86.5H34.9M9.1 86.5C5.04592 86.5 3.01888 86.5 1.75944 87.7594C0.5 89.0189 0.5 91.0459 0.5 95.1V120.9C0.5 124.954 0.5 126.981 1.75944 128.241C3.01888 129.5 5.04592 129.5 9.1 129.5M43.5 77.9V52.1M43.5 77.9C43.5 81.9541 43.5 83.9811 42.2406 85.2406C40.9811 86.5 38.9541 86.5 34.9 86.5M43.5 77.9C43.5 81.9541 43.5 83.9811 44.7594 85.2406C46.0189 86.5 48.0459 86.5 52.1 86.5M34.9 86.5C38.9541 86.5 40.9811 86.5 42.2406 87.7594C43.5 89.0189 43.5 91.0459 43.5 95.1M52.1 86.5H77.9M52.1 86.5C48.0459 86.5 46.0189 86.5 44.7594 87.7594C43.5 89.0189 43.5 91.0459 43.5 95.1M86.5 77.9V52.1M86.5 77.9C86.5 81.9541 86.5 83.9811 85.2406 85.2406C83.9811 86.5 81.9541 86.5 77.9 86.5M86.5 77.9C86.5 81.9541 86.5 83.9811 87.7594 85.2406C89.0189 86.5 91.0459 86.5 95.1 86.5M77.9 86.5C81.9541 86.5 83.9811 86.5 85.2406 87.7594C86.5 89.0189 86.5 91.0459 86.5 95.1M95.1 86.5H120.9M95.1 86.5C91.0459 86.5 89.0189 86.5 87.7594 87.7594C86.5 89.0189 86.5 91.0459 86.5 95.1M129.5 77.9V52.1M129.5 77.9C129.5 81.9541 129.5 83.9811 128.241 85.2406C126.981 86.5 124.954 86.5 120.9 86.5M129.5 77.9C129.5 81.9541 129.5 83.9811 130.759 85.2406C132.019 86.5 134.046 86.5 138.1 86.5M120.9 86.5C124.954 86.5 126.981 86.5 128.241 87.7594C129.5 89.0189 129.5 91.0459 129.5 95.1M138.1 86.5H163.9M138.1 86.5C134.046 86.5 132.019 86.5 130.759 87.7594C129.5 89.0189 129.5 91.0459 129.5 95.1M172.5 77.9V52.1M172.5 77.9C172.5 81.9541 172.5 83.9811 171.241 85.2406C169.981 86.5 167.954 86.5 163.9 86.5M172.5 77.9C172.5 81.9541 172.5 83.9811 173.759 85.2406C175.019 86.5 177.046 86.5 181.1 86.5M163.9 86.5C167.954 86.5 169.981 86.5 171.241 87.7594C172.5 89.0189 172.5 91.0459 172.5 95.1M181.1 86.5H206.9M181.1 86.5C177.046 86.5 175.019 86.5 173.759 87.7594C172.5 89.0189 172.5 91.0459 172.5 95.1M215.5 77.9V52.1M215.5 77.9C215.5 81.9541 215.5 83.9811 214.241 85.2406C212.981 86.5 210.954 86.5 206.9 86.5M215.5 77.9C215.5 81.9541 215.5 83.9811 216.759 85.2406C218.019 86.5 220.046 86.5 224.1 86.5M206.9 86.5C210.954 86.5 212.981 86.5 214.241 87.7594C215.5 89.0189 215.5 91.0459 215.5 95.1M224.1 86.5H249.9M224.1 86.5C220.046 86.5 218.019 86.5 216.759 87.7594C215.5 89.0189 215.5 91.0459 215.5 95.1M249.9 86.5C253.954 86.5 255.981 86.5 257.241 87.7594C258.5 89.0189 258.5 91.0459 258.5 95.1V120.9C258.5 124.954 258.5 126.981 257.241 128.241C255.981 129.5 253.954 129.5 249.9 129.5M9.1 129.5H34.9M9.1 129.5C5.04592 129.5 3.01888 129.5 1.75944 130.759C0.5 132.019 0.5 134.046 0.5 138.1V163.9C0.5 167.954 0.5 169.981 1.75944 171.241C3.01888 172.5 5.04592 172.5 9.1 172.5M43.5 120.9V95.1M43.5 120.9C43.5 124.954 43.5 126.981 42.2406 128.241C40.9811 129.5 38.9541 129.5 34.9 129.5M43.5 120.9C43.5 124.954 43.5 126.981 44.7594 128.241C46.0189 129.5 48.0459 129.5 52.1 129.5M34.9 129.5C38.9541 129.5 40.9811 129.5 42.2406 130.759C43.5 132.019 43.5 134.046 43.5 138.1M52.1 129.5H77.9M52.1 129.5C48.0459 129.5 46.0189 129.5 44.7594 130.759C43.5 132.019 43.5 134.046 43.5 138.1M86.5 120.9V95.1M86.5 120.9C86.5 124.954 86.5 126.981 85.2406 128.241C83.9811 129.5 81.9541 129.5 77.9 129.5M86.5 120.9C86.5 124.954 86.5 126.981 87.7594 128.241C89.0189 129.5 91.0459 129.5 95.1 129.5M77.9 129.5C81.9541 129.5 83.9811 129.5 85.2406 130.759C86.5 132.019 86.5 134.046 86.5 138.1M95.1 129.5H120.9M95.1 129.5C91.0459 129.5 89.0189 129.5 87.7594 130.759C86.5 132.019 86.5 134.046 86.5 138.1M129.5 120.9V95.1M129.5 120.9C129.5 124.954 129.5 126.981 128.241 128.241C126.981 129.5 124.954 129.5 120.9 129.5M129.5 120.9C129.5 124.954 129.5 126.981 130.759 128.241C132.019 129.5 134.046 129.5 138.1 129.5M120.9 129.5C124.954 129.5 126.981 129.5 128.241 130.759C129.5 132.019 129.5 134.046 129.5 138.1M138.1 129.5H163.9M138.1 129.5C134.046 129.5 132.019 129.5 130.759 130.759C129.5 132.019 129.5 134.046 129.5 138.1M172.5 120.9V95.1M172.5 120.9C172.5 124.954 172.5 126.981 171.241 128.241C169.981 129.5 167.954 129.5 163.9 129.5M172.5 120.9C172.5 124.954 172.5 126.981 173.759 128.241C175.019 129.5 177.046 129.5 181.1 129.5M163.9 129.5C167.954 129.5 169.981 129.5 171.241 130.759C172.5 132.019 172.5 134.046 172.5 138.1M181.1 129.5H206.9M181.1 129.5C177.046 129.5 175.019 129.5 173.759 130.759C172.5 132.019 172.5 134.046 172.5 138.1M215.5 120.9V95.1M215.5 120.9C215.5 124.954 215.5 126.981 214.241 128.241C212.981 129.5 210.954 129.5 206.9 129.5M215.5 120.9C215.5 124.954 215.5 126.981 216.759 128.241C218.019 129.5 220.046 129.5 224.1 129.5M206.9 129.5C210.954 129.5 212.981 129.5 214.241 130.759C215.5 132.019 215.5 134.046 215.5 138.1M224.1 129.5H249.9M224.1 129.5C220.046 129.5 218.019 129.5 216.759 130.759C215.5 132.019 215.5 134.046 215.5 138.1M249.9 129.5C253.954 129.5 255.981 129.5 257.241 130.759C258.5 132.019 258.5 134.046 258.5 138.1V163.9C258.5 167.954 258.5 169.981 257.241 171.241C255.981 172.5 253.954 172.5 249.9 172.5M9.1 172.5H34.9M9.1 172.5C5.04592 172.5 3.01888 172.5 1.75944 173.759C0.5 175.019 0.5 177.046 0.5 181.1V206.9C0.5 210.954 0.5 212.981 1.75944 214.241C3.01888 215.5 5.04592 215.5 9.1 215.5M43.5 163.9V138.1M43.5 163.9C43.5 167.954 43.5 169.981 42.2406 171.241C40.9811 172.5 38.9541 172.5 34.9 172.5M43.5 163.9C43.5 167.954 43.5 169.981 44.7594 171.241C46.0189 172.5 48.0459 172.5 52.1 172.5M34.9 172.5C38.9541 172.5 40.9811 172.5 42.2406 173.759C43.5 175.019 43.5 177.046 43.5 181.1M52.1 172.5H77.9M52.1 172.5C48.0459 172.5 46.0189 172.5 44.7594 173.759C43.5 175.019 43.5 177.046 43.5 181.1M86.5 163.9V138.1M86.5 163.9C86.5 167.954 86.5 169.981 85.2406 171.241C83.9811 172.5 81.9541 172.5 77.9 172.5M86.5 163.9C86.5 167.954 86.5 169.981 87.7594 171.241C89.0189 172.5 91.0459 172.5 95.1 172.5M77.9 172.5C81.9541 172.5 83.9811 172.5 85.2406 173.759C86.5 175.019 86.5 177.046 86.5 181.1M95.1 172.5H120.9M95.1 172.5C91.0459 172.5 89.0189 172.5 87.7594 173.759C86.5 175.019 86.5 177.046 86.5 181.1M129.5 163.9V138.1M129.5 163.9C129.5 167.954 129.5 169.981 128.241 171.241C126.981 172.5 124.954 172.5 120.9 172.5M129.5 163.9C129.5 167.954 129.5 169.981 130.759 171.241C132.019 172.5 134.046 172.5 138.1 172.5M120.9 172.5C124.954 172.5 126.981 172.5 128.241 173.759C129.5 175.019 129.5 177.046 129.5 181.1M138.1 172.5H163.9M138.1 172.5C134.046 172.5 132.019 172.5 130.759 173.759C129.5 175.019 129.5 177.046 129.5 181.1M172.5 163.9V138.1M172.5 163.9C172.5 167.954 172.5 169.981 171.241 171.241C169.981 172.5 167.954 172.5 163.9 172.5M172.5 163.9C172.5 167.954 172.5 169.981 173.759 171.241C175.019 172.5 177.046 172.5 181.1 172.5M163.9 172.5C167.954 172.5 169.981 172.5 171.241 173.759C172.5 175.019 172.5 177.046 172.5 181.1M181.1 172.5H206.9M181.1 172.5C177.046 172.5 175.019 172.5 173.759 173.759C172.5 175.019 172.5 177.046 172.5 181.1M215.5 163.9V138.1M215.5 163.9C215.5 167.954 215.5 169.981 214.241 171.241C212.981 172.5 210.954 172.5 206.9 172.5M215.5 163.9C215.5 167.954 215.5 169.981 216.759 171.241C218.019 172.5 220.046 172.5 224.1 172.5M206.9 172.5C210.954 172.5 212.981 172.5 214.241 173.759C215.5 175.019 215.5 177.046 215.5 181.1M224.1 172.5H249.9M224.1 172.5C220.046 172.5 218.019 172.5 216.759 173.759C215.5 175.019 215.5 177.046 215.5 181.1M249.9 172.5C253.954 172.5 255.981 172.5 257.241 173.759C258.5 175.019 258.5 177.046 258.5 181.1V206.9C258.5 210.954 258.5 212.981 257.241 214.241C255.981 215.5 253.954 215.5 249.9 215.5M9.1 215.5H34.9M9.1 215.5C5.04592 215.5 3.01888 215.5 1.75944 216.759C0.5 218.019 0.5 220.046 0.5 224.1V249.9C0.5 253.954 0.5 255.981 1.75944 257.241C3.01888 258.5 5.04592 258.5 9.1 258.5M43.5 206.9V181.1M43.5 206.9C43.5 210.954 43.5 212.981 42.2406 214.241C40.9811 215.5 38.9541 215.5 34.9 215.5M43.5 206.9C43.5 210.954 43.5 212.981 44.7594 214.241C46.0189 215.5 48.0459 215.5 52.1 215.5M34.9 215.5C38.9541 215.5 40.9811 215.5 42.2406 216.759C43.5 218.019 43.5 220.046 43.5 224.1M52.1 215.5H77.9M52.1 215.5C48.0459 215.5 46.0189 215.5 44.7594 216.759C43.5 218.019 43.5 220.046 43.5 224.1M86.5 206.9V181.1M86.5 206.9C86.5 210.954 86.5 212.981 85.2406 214.241C83.9811 215.5 81.9541 215.5 77.9 215.5M86.5 206.9C86.5 210.954 86.5 212.981 87.7594 214.241C89.0189 215.5 91.0459 215.5 95.1 215.5M77.9 215.5C81.9541 215.5 83.9811 215.5 85.2406 216.759C86.5 218.019 86.5 220.046 86.5 224.1M95.1 215.5H120.9M95.1 215.5C91.0459 215.5 89.0189 215.5 87.7594 216.759C86.5 218.019 86.5 220.046 86.5 224.1M129.5 206.9V181.1M129.5 206.9C129.5 210.954 129.5 212.981 128.241 214.241C126.981 215.5 124.954 215.5 120.9 215.5M129.5 206.9C129.5 210.954 129.5 212.981 130.759 214.241C132.019 215.5 134.046 215.5 138.1 215.5M120.9 215.5C124.954 215.5 126.981 215.5 128.241 216.759C129.5 218.019 129.5 220.046 129.5 224.1M138.1 215.5H163.9M138.1 215.5C134.046 215.5 132.019 215.5 130.759 216.759C129.5 218.019 129.5 220.046 129.5 224.1M172.5 206.9V181.1M172.5 206.9C172.5 210.954 172.5 212.981 171.241 214.241C169.981 215.5 167.954 215.5 163.9 215.5M172.5 206.9C172.5 210.954 172.5 212.981 173.759 214.241C175.019 215.5 177.046 215.5 181.1 215.5M163.9 215.5C167.954 215.5 169.981 215.5 171.241 216.759C172.5 218.019 172.5 220.046 172.5 224.1M181.1 215.5H206.9M181.1 215.5C177.046 215.5 175.019 215.5 173.759 216.759C172.5 218.019 172.5 220.046 172.5 224.1M215.5 206.9V181.1M215.5 206.9C215.5 210.954 215.5 212.981 214.241 214.241C212.981 215.5 210.954 215.5 206.9 215.5M215.5 206.9C215.5 210.954 215.5 212.981 216.759 214.241C218.019 215.5 220.046 215.5 224.1 215.5M206.9 215.5C210.954 215.5 212.981 215.5 214.241 216.759C215.5 218.019 215.5 220.046 215.5 224.1M224.1 215.5H249.9M224.1 215.5C220.046 215.5 218.019 215.5 216.759 216.759C215.5 218.019 215.5 220.046 215.5 224.1M249.9 215.5C253.954 215.5 255.981 215.5 257.241 216.759C258.5 218.019 258.5 220.046 258.5 224.1V249.9C258.5 253.954 258.5 255.981 257.241 257.241C255.981 258.5 253.954 258.5 249.9 258.5M9.1 258.5H34.9M9.1 258.5C5.04592 258.5 3.01888 258.5 1.75944 259.759C0.5 261.019 0.5 263.046 0.5 267.1V292.9C0.5 296.954 0.5 298.981 1.75944 300.241C3.01888 301.5 5.04592 301.5 9.1 301.5H34.9C38.9541 301.5 40.9811 301.5 42.2406 300.241C43.5 298.981 43.5 296.954 43.5 292.9M43.5 249.9V224.1M43.5 249.9C43.5 253.954 43.5 255.981 42.2406 257.241C40.9811 258.5 38.9541 258.5 34.9 258.5M43.5 249.9C43.5 253.954 43.5 255.981 44.7594 257.241C46.0189 258.5 48.0459 258.5 52.1 258.5M34.9 258.5C38.9541 258.5 40.9811 258.5 42.2406 259.759C43.5 261.019 43.5 263.046 43.5 267.1M52.1 258.5H77.9M52.1 258.5C48.0459 258.5 46.0189 258.5 44.7594 259.759C43.5 261.019 43.5 263.046 43.5 267.1M86.5 249.9V224.1M86.5 249.9C86.5 253.954 86.5 255.981 85.2406 257.241C83.9811 258.5 81.9541 258.5 77.9 258.5M86.5 249.9C86.5 253.954 86.5 255.981 87.7594 257.241C89.0189 258.5 91.0459 258.5 95.1 258.5M77.9 258.5C81.9541 258.5 83.9811 258.5 85.2406 259.759C86.5 261.019 86.5 263.046 86.5 267.1M95.1 258.5H120.9M95.1 258.5C91.0459 258.5 89.0189 258.5 87.7594 259.759C86.5 261.019 86.5 263.046 86.5 267.1M129.5 249.9V224.1M129.5 249.9C129.5 253.954 129.5 255.981 128.241 257.241C126.981 258.5 124.954 258.5 120.9 258.5M129.5 249.9C129.5 253.954 129.5 255.981 130.759 257.241C132.019 258.5 134.046 258.5 138.1 258.5M120.9 258.5C124.954 258.5 126.981 258.5 128.241 259.759C129.5 261.019 129.5 263.046 129.5 267.1M138.1 258.5H163.9M138.1 258.5C134.046 258.5 132.019 258.5 130.759 259.759C129.5 261.019 129.5 263.046 129.5 267.1M172.5 249.9V224.1M172.5 249.9C172.5 253.954 172.5 255.981 171.241 257.241C169.981 258.5 167.954 258.5 163.9 258.5M172.5 249.9C172.5 253.954 172.5 255.981 173.759 257.241C175.019 258.5 177.046 258.5 181.1 258.5M163.9 258.5C167.954 258.5 169.981 258.5 171.241 259.759C172.5 261.019 172.5 263.046 172.5 267.1M181.1 258.5H206.9M181.1 258.5C177.046 258.5 175.019 258.5 173.759 259.759C172.5 261.019 172.5 263.046 172.5 267.1M215.5 249.9V224.1M215.5 249.9C215.5 253.954 215.5 255.981 214.241 257.241C212.981 258.5 210.954 258.5 206.9 258.5M215.5 249.9C215.5 253.954 215.5 255.981 216.759 257.241C218.019 258.5 220.046 258.5 224.1 258.5M206.9 258.5C210.954 258.5 212.981 258.5 214.241 259.759C215.5 261.019 215.5 263.046 215.5 267.1M224.1 258.5H249.9M224.1 258.5C220.046 258.5 218.019 258.5 216.759 259.759C215.5 261.019 215.5 263.046 215.5 267.1M249.9 258.5C253.954 258.5 255.981 258.5 257.241 259.759C258.5 261.019 258.5 263.046 258.5 267.1V292.9C258.5 296.954 258.5 298.981 257.241 300.241C255.981 301.5 253.954 301.5 249.9 301.5H224.1C220.046 301.5 218.019 301.5 216.759 300.241C215.5 298.981 215.5 296.954 215.5 292.9M43.5 292.9V267.1M43.5 292.9C43.5 296.954 43.5 298.981 44.7594 300.241C46.0189 301.5 48.0459 301.5 52.1 301.5H77.9C81.9541 301.5 83.9811 301.5 85.2406 300.241C86.5 298.981 86.5 296.954 86.5 292.9M86.5 292.9V267.1M86.5 292.9C86.5 296.954 86.5 298.981 87.7594 300.241C89.0189 301.5 91.0459 301.5 95.1 301.5H120.9C124.954 301.5 126.981 301.5 128.241 300.241C129.5 298.981 129.5 296.954 129.5 292.9M129.5 292.9V267.1M129.5 292.9C129.5 296.954 129.5 298.981 130.759 300.241C132.019 301.5 134.046 301.5 138.1 301.5H163.9C167.954 301.5 169.981 301.5 171.241 300.241C172.5 298.981 172.5 296.954 172.5 292.9M172.5 292.9V267.1M172.5 292.9C172.5 296.954 172.5 298.981 173.759 300.241C175.019 301.5 177.046 301.5 181.1 301.5H206.9C210.954 301.5 212.981 301.5 214.241 300.241C215.5 298.981 215.5 296.954 215.5 292.9M215.5 292.9V267.1" stroke="url(#paint0_linear_296_2372)"/>
<defs>
<linearGradient id="paint0_linear_296_2372" x1="250.654" y1="-6.79596" x2="56.7745" y2="207.425" gradientUnits="userSpaceOnUse">
<stop stop-color="white"/>
<stop offset="1" stop-color="white" stop-opacity="0"/>
</linearGradient>
</defs>
</svg>
