<svg preserveAspectRatio="none" width="100%" height="100%" overflow="visible" style="display: block;" viewBox="0 0 18 18" fill="none" xmlns="http://www.w3.org/2000/svg">
<g id="Frame">
<path id="Vector" d="M9.00002 6.75C7.75697 6.75 6.75 7.75733 6.75 9C6.75 10.243 7.75734 11.25 9.00002 11.25C10.243 11.25 11.25 10.2427 11.25 9C11.25 7.75703 10.2427 6.75 9.00002 6.75ZM9.00002 5.25C11.0703 5.25 12.75 6.92783 12.75 9C12.75 11.0704 11.0722 12.75 9.00002 12.75C6.92965 12.75 5.25 11.0722 5.25 9C5.25 6.92965 6.92783 5.25 9.00002 5.25ZM13.875 5.06186C13.875 5.57945 13.4544 5.99938 12.9375 5.99938C12.4199 5.99938 12 5.5788 12 5.06186C12 4.54493 12.4205 4.125 12.9375 4.125C13.4537 4.12435 13.875 4.54493 13.875 5.06186ZM9.00002 3C7.14414 3 6.84165 3.00491 5.97847 3.04335C5.39038 3.07096 4.99616 3.15005 4.62988 3.29225C4.30438 3.41849 4.06958 3.56924 3.81941 3.81941C3.56827 4.07055 3.41779 4.30472 3.29206 4.63037C3.14953 4.99749 3.07046 5.39108 3.04335 5.97836C3.00454 6.8064 3 7.09579 3 9C3 10.8559 3.00491 11.1584 3.04334 12.0215C3.07097 12.6093 3.15016 13.0041 3.29202 13.3695C3.41859 13.6955 3.56964 13.9308 3.81861 14.1798C4.07074 14.4316 4.30561 14.5826 4.62817 14.7071C4.99891 14.8504 5.39287 14.9296 5.97835 14.9567C6.8064 14.9954 7.09579 15 9.00002 15C10.8559 15 11.1584 14.9951 12.0215 14.9567C12.608 14.9291 13.0031 14.8497 13.3695 14.708C13.6946 14.5817 13.9307 14.4302 14.1798 14.1814C14.432 13.9289 14.5826 13.6946 14.7073 13.3712C14.8502 13.0019 14.9296 12.6074 14.9567 12.0217C14.9954 11.1936 15 10.9042 15 9C15 7.14414 14.9951 6.84166 14.9567 5.97853C14.9291 5.3918 14.8496 4.99612 14.7077 4.62989C14.5818 4.30529 14.4305 4.06976 14.1806 3.81941C13.929 3.56786 13.6955 3.4177 13.3696 3.29207C13.0028 3.14966 12.6086 3.07047 12.0216 3.04336C11.1936 3.00454 10.9042 3 9.00002 3ZM9.00002 1.5C11.0375 1.5 11.2919 1.5075 12.0919 1.545C12.89 1.58188 13.4344 1.70813 13.9125 1.89375C14.4068 2.08438 14.8244 2.34188 15.2412 2.75875C15.6575 3.17563 15.915 3.59438 16.1063 4.0875C16.2912 4.565 16.4175 5.11 16.455 5.90813C16.4906 6.70813 16.5 6.9625 16.5 9C16.5 11.0375 16.4925 11.2919 16.455 12.0919C16.4181 12.89 16.2912 13.4344 16.1063 13.9125C15.9156 14.4069 15.6575 14.8244 15.2412 15.2413C14.8244 15.6575 14.405 15.915 13.9125 16.1063C13.4344 16.2913 12.89 16.4175 12.0919 16.455C11.2919 16.4906 11.0375 16.5 9.00002 16.5C6.9625 16.5 6.70812 16.4925 5.90812 16.455C5.11 16.4181 4.56625 16.2913 4.0875 16.1063C3.59375 15.9156 3.17562 15.6575 2.75875 15.2413C2.34188 14.8244 2.085 14.405 1.89375 13.9125C1.70813 13.4344 1.5825 12.89 1.545 12.0919C1.50938 11.2919 1.5 11.0375 1.5 9C1.5 6.9625 1.5075 6.70813 1.545 5.90813C1.58187 5.10938 1.70813 4.56563 1.89375 4.0875C2.08437 3.59375 2.34188 3.17563 2.75875 2.75875C3.17562 2.34188 3.59438 2.085 4.0875 1.89375C4.56562 1.70813 5.10937 1.5825 5.90812 1.545C6.70812 1.50937 6.9625 1.5 9.00002 1.5Z" fill="var(--fill-0, #3990F0)"/>
</g>
</svg>
