<svg preserveAspectRatio="none" width="100%" height="100%" overflow="visible" style="display: block;" viewBox="0 0 18 18" fill="none" xmlns="http://www.w3.org/2000/svg">
<g id="Frame">
<path id="Vector" d="M5.20512 3.74946C5.20484 4.36019 4.83432 4.90978 4.26826 5.13906C3.70221 5.36835 3.05366 5.23155 2.62843 4.79317C2.2032 4.35479 2.08622 3.70237 2.33263 3.14356C2.57905 2.58475 3.13966 2.23114 3.75012 2.24946C4.56092 2.2738 5.20548 2.93829 5.20512 3.74946ZM5.25012 6.35946H2.25012V15.7494H5.25012V6.35946ZM9.99013 6.35946H7.00512V15.7494H9.96013V10.8219C9.96013 8.07694 13.5376 7.82194 13.5376 10.8219V15.7494H16.5001V9.80194C16.5001 5.17446 11.2051 5.34696 9.96013 7.61944L9.99013 6.35946Z" fill="var(--fill-0, #3990F0)"/>
</g>
</svg>
